<svg xmlns="http://www.w3.org/2000/svg" xmlns:xlink="http://www.w3.org/1999/xlink" viewBox="0 0 3710 3710"><defs><linearGradient id="linear-gradient" x1="4983.31" y1="904.65" x2="4215.69" y2="3086.3" gradientTransform="matrix(-0.97, 0.22, 0.22, 0.97, 5638.87, -1343.69)" gradientUnits="userSpaceOnUse"><stop offset="0" stop-color="#e38ddd"/><stop offset="1" stop-color="#9571f6"/></linearGradient><clipPath id="clip-path"><path d="M2151.13,2687.6l-375.83,86.25s-115-176.56-54.11-333.76c124.2-320.72-165.37-407.12-281.24-461.45-174.74-81.94-293-230.36-91.85-353s-95.2-409.92-396.48-501.57c-294.82-89.69-305.51-665.53,350.43-530,391.72,80.94,422.45,469.51,484.62,662.05s358.08,141.73,313.16,404.68c-38.37,224.6-166.36,411.32-10.16,523.83S2294.94,2452.29,2151.13,2687.6Z" fill="none"/></clipPath><linearGradient id="linear-gradient-2" x1="2758.92" y1="718.1" x2="3725.43" y2="2309.23" gradientTransform="translate(-2149.29 1163.85) rotate(-17.95)" gradientUnits="userSpaceOnUse"><stop offset="0" stop-color="#ff9085"/><stop offset="1" stop-color="#fb6fbb"/></linearGradient><clipPath id="clip-path-2"><path d="M1754.34,2306.05l406.18-131.61c5-65.16.88-181-92.57-179.64-129.93,1.93-198.66-206-189.41-290.12,11.45-104.13,33.14-347.16-167.77-347.33-167.26-.15-275.22,33.93-347.62-158.52s-217.8-280.91-391.71-213.27c-183,71.19-414.71-129.24-541.57,2.24-221,229.11,156.72,584.41,520.58,607.11s214.62,198.3,256.41,361.3c57,222.54,338.05,82.53,443.28,143.84C1732.63,2148.11,1750.58,2244.67,1754.34,2306.05Z" fill="none"/></clipPath><linearGradient id="linear-gradient-3" x1="1647.04" y1="3073.74" x2="1435.65" y2="3162.52" gradientUnits="userSpaceOnUse"><stop offset="0" stop-color="#40447e"/><stop offset="1" stop-color="#3c3b6b"/></linearGradient><linearGradient id="linear-gradient-4" x1="1364.77" y1="2142.05" x2="1135.35" y2="2238.41" xlink:href="#linear-gradient-3"/><linearGradient id="linear-gradient-5" x1="375.94" y1="2194.21" x2="2502.01" y2="2194.21" xlink:href="#linear-gradient-3"/><linearGradient id="linear-gradient-6" x1="2154.09" y1="1135.58" x2="426.24" y2="3550.15" gradientUnits="userSpaceOnUse"><stop offset="0" stop-color="#ffc444"/><stop offset="1" stop-color="#f36f56"/></linearGradient><linearGradient id="linear-gradient-7" x1="375.94" y1="2980.42" x2="3385.2" y2="2980.42" xlink:href="#linear-gradient-3"/><linearGradient id="linear-gradient-8" x1="1390.17" y1="2157.92" x2="1736.85" y2="2157.92" gradientTransform="matrix(1, 0, 0, 1, 0, 0)" xlink:href="#linear-gradient-2"/><linearGradient id="linear-gradient-9" x1="671.05" y1="2955.77" x2="2875.92" y2="2955.77" xlink:href="#linear-gradient-3"/><linearGradient id="linear-gradient-10" x1="3167.59" y1="3175.73" x2="2584.3" y2="2678.16" gradientUnits="userSpaceOnUse"><stop offset="0" stop-color="#444b8c"/><stop offset="1" stop-color="#26264f"/></linearGradient><linearGradient id="linear-gradient-11" x1="-1594.74" y1="4074.74" x2="476.92" y2="4151.81" gradientTransform="translate(-1389.03 1734.32) rotate(-90)" xlink:href="#linear-gradient-10"/><linearGradient id="linear-gradient-12" x1="2894.89" y1="2507.47" x2="2153.78" y2="3503.94" xlink:href="#linear-gradient-6"/><linearGradient id="linear-gradient-13" x1="2591.09" y1="2687.48" x2="2862.53" y2="2687.48" gradientTransform="matrix(1, 0, 0, 1, 0, 0)" xlink:href="#linear-gradient-2"/><linearGradient id="linear-gradient-14" x1="3571.28" y1="3298.56" x2="3208" y2="2988.67" xlink:href="#linear-gradient-10"/><linearGradient id="linear-gradient-15" x1="-1692.41" y1="4657.56" x2="-282.45" y2="4710.01" gradientTransform="translate(-1389.03 1734.32) rotate(-90)" xlink:href="#linear-gradient-10"/><linearGradient id="linear-gradient-16" x1="3402.56" y1="2880.06" x2="2931.2" y2="3513.84" xlink:href="#linear-gradient-6"/><linearGradient id="linear-gradient-17" x1="3214.77" y1="2996.87" x2="3375.24" y2="2996.87" gradientTransform="matrix(1, 0, 0, 1, 0, 0)" xlink:href="#linear-gradient-2"/><linearGradient id="linear-gradient-18" x1="-845.43" y1="1962.04" x2="119.42" y2="2617.4" gradientTransform="matrix(-1, 0, 0, 1, 230.29, 0)" gradientUnits="userSpaceOnUse"><stop offset="0" stop-color="#311944"/><stop offset="1" stop-color="#6b3976"/></linearGradient><linearGradient id="linear-gradient-19" x1="871.14" y1="3820.97" x2="1288.17" y2="1916.78" gradientTransform="matrix(1, 0, 0, 1, 0, 0)" xlink:href="#linear-gradient"/><linearGradient id="linear-gradient-20" x1="-1272.13" y1="3476.63" x2="-1142.19" y2="3476.63" xlink:href="#linear-gradient-18"/><linearGradient id="linear-gradient-21" x1="-1210.85" y1="3527.84" x2="-1016.99" y2="2946.25" gradientTransform="matrix(-1, 0, 0, 1, 230.29, 0)" xlink:href="#linear-gradient-6"/><linearGradient id="linear-gradient-22" x1="-1251.45" y1="3238.04" x2="-1171.98" y2="3238.04" xlink:href="#linear-gradient-18"/><linearGradient id="linear-gradient-23" x1="-1297.51" y1="3456.25" x2="-1167.74" y2="3066.95" gradientTransform="matrix(-1, 0, 0, 1, 230.29, 0)" xlink:href="#linear-gradient-6"/><linearGradient id="linear-gradient-24" x1="-1137.62" y1="2800.38" x2="-1040.83" y2="3359.93" gradientTransform="matrix(-1, 0, 0, 1, 230.29, 0)" gradientUnits="userSpaceOnUse"><stop offset="0" stop-color="#ab316d"/><stop offset="1" stop-color="#792d3d"/></linearGradient><linearGradient id="linear-gradient-25" x1="-1000.93" y1="3463.53" x2="-863.31" y2="3027.99" xlink:href="#linear-gradient-24"/><linearGradient id="linear-gradient-26" x1="-1000.92" y1="3463.54" x2="-863.3" y2="3027.99" xlink:href="#linear-gradient-24"/><linearGradient id="linear-gradient-27" x1="-807.27" y1="2743.91" x2="-710.7" y2="3302.17" xlink:href="#linear-gradient-24"/><linearGradient id="linear-gradient-28" x1="642.57" y1="3770.91" x2="1059.6" y2="1866.73" gradientTransform="matrix(1, 0, 0, 1, 0, 0)" xlink:href="#linear-gradient"/><linearGradient id="linear-gradient-29" x1="2831.4" y1="2152.9" x2="2841.26" y2="1890.23" gradientTransform="translate(-1518.15 -244.24) rotate(10.28)" xlink:href="#linear-gradient-6"/><linearGradient id="linear-gradient-30" x1="2828.32" y1="1921.01" x2="2824.1" y2="2261.1" gradientTransform="translate(-1518.15 -244.24) rotate(10.28)" xlink:href="#linear-gradient-6"/><linearGradient id="linear-gradient-31" x1="537.37" y1="2736.61" x2="912.26" y2="2736.61" gradientTransform="matrix(-1, 0, 0, 1, 1740.28, 0)" xlink:href="#linear-gradient-3"/><linearGradient id="linear-gradient-32" x1="297.62" y1="2500.13" x2="543.41" y2="2743.95" gradientTransform="matrix(-1, 0, 0, 1, 1740.28, 0)" xlink:href="#linear-gradient-3"/><linearGradient id="linear-gradient-33" x1="297.62" y1="2500.13" x2="543.41" y2="2743.95" gradientTransform="matrix(-1, 0, 0, 1, 1740.28, 0)" xlink:href="#linear-gradient-3"/><linearGradient id="linear-gradient-34" x1="461.69" y1="3731.3" x2="878.73" y2="1827.11" gradientTransform="matrix(1, 0, 0, 1, 0, 0)" xlink:href="#linear-gradient"/><linearGradient id="linear-gradient-35" x1="968.14" y1="2662.69" x2="843.51" y2="2780.13" xlink:href="#linear-gradient-6"/><linearGradient id="linear-gradient-36" x1="-3301.75" y1="2908.61" x2="-3707.06" y2="3390.56" gradientTransform="translate(3915.5)" xlink:href="#linear-gradient"/><linearGradient id="linear-gradient-37" x1="-3143.46" y1="3605.3" x2="-3175.56" y2="3313.47" gradientTransform="translate(3907.61 28.52) rotate(3.02)" gradientUnits="userSpaceOnUse"><stop offset="0" stop-color="#aa80f9"/><stop offset="1" stop-color="#6165d7"/></linearGradient><linearGradient id="linear-gradient-38" x1="2309.44" y1="526.49" x2="2434.68" y2="1658.68" gradientUnits="userSpaceOnUse"><stop offset="0" stop-color="#311944"/><stop offset="1" stop-color="#893976"/></linearGradient><linearGradient id="linear-gradient-39" x1="2773.58" y1="1420.31" x2="3262.31" y2="2407.46" xlink:href="#linear-gradient-38"/><linearGradient id="linear-gradient-40" x1="1998.63" y1="1004.9" x2="2716.55" y2="1927.95" xlink:href="#linear-gradient-38"/><linearGradient id="linear-gradient-41" x1="3406.04" y1="366.1" x2="2929.34" y2="1030.85" xlink:href="#linear-gradient-38"/><linearGradient id="linear-gradient-42" x1="2350.01" y1="527.27" x2="2474.09" y2="1648.91" xlink:href="#linear-gradient-6"/><linearGradient id="linear-gradient-43" x1="2814.07" y1="1420.31" x2="3302.8" y2="2407.46" gradientTransform="matrix(1, 0, 0, 1, 0, 0)" xlink:href="#linear-gradient"/><linearGradient id="linear-gradient-44" x1="2039.26" y1="1005.09" x2="2731.63" y2="1895.27" gradientTransform="matrix(1, 0, 0, 1, 0, 0)" xlink:href="#linear-gradient-37"/><linearGradient id="linear-gradient-45" x1="3520.6" y1="258.35" x2="2996.19" y2="989.64" gradientTransform="matrix(1, 0, 0, 1, 0, 0)" xlink:href="#linear-gradient-2"/><linearGradient id="linear-gradient-46" x1="2579.24" y1="1543.36" x2="3058.97" y2="2512.33" gradientTransform="matrix(1, 0, 0, 1, 0, 0)" xlink:href="#linear-gradient"/><linearGradient id="linear-gradient-47" x1="2292.23" y1="534.64" x2="2416.08" y2="1654.26" xlink:href="#linear-gradient-6"/><linearGradient id="linear-gradient-48" x1="1680.96" y1="593.51" x2="2156.1" y2="593.51" xlink:href="#linear-gradient-6"/><linearGradient id="linear-gradient-49" x1="1742.52" y1="471.19" x2="2050.94" y2="1090.11" xlink:href="#linear-gradient-6"/><linearGradient id="linear-gradient-50" x1="2209.54" y1="227.3" x2="2424.46" y2="625.91" gradientTransform="matrix(1, 0, 0, 1, 0, 0)" xlink:href="#linear-gradient"/><linearGradient id="linear-gradient-51" x1="2147.4" y1="251.53" x2="2358.15" y2="674.46" gradientTransform="matrix(1, 0, 0, 1, 0, 0)" xlink:href="#linear-gradient"/><linearGradient id="linear-gradient-52" x1="2605.84" y1="1795.04" x2="2886.44" y2="1810.08" gradientTransform="matrix(-1, 0, 0, 1, 5996.5, 0)" xlink:href="#linear-gradient-37"/><linearGradient id="linear-gradient-53" x1="-3057.6" y1="1681.66" x2="-2816.51" y2="2128.81" gradientTransform="translate(6254.82)" xlink:href="#linear-gradient-37"/><linearGradient id="linear-gradient-54" x1="-3127.35" y1="1708.15" x2="-2889.89" y2="2184.68" gradientTransform="translate(6254.82)" xlink:href="#linear-gradient-37"/></defs><g style="isolation:isolate"><g id="Illustration"><g id="Cross-device_marketing" data-name="Cross-device marketing"><circle cx="1834.41" cy="1855" r="1705.33" fill="#f4f7fa"/><path d="M2151.13,2687.6l-375.83,86.25s-115-176.56-54.11-333.76c124.2-320.72-165.37-407.12-281.24-461.45-174.74-81.94-274.4-216.75-118.55-354.8,176.32-156.2-68.5-408.07-369.78-499.72-294.82-89.69-305.51-665.53,350.43-530,391.72,80.94,422.45,469.51,484.62,662.05s358.08,141.73,313.16,404.68c-38.37,224.6-166.36,411.32-10.16,523.83S2294.94,2452.29,2151.13,2687.6Z" fill="url(#linear-gradient)"/><g opacity="0.3" style="mix-blend-mode:soft-light"><g clip-path="url(#clip-path)"><path d="M1996.48,2759.81l-8.14.36c-.22-5-24.39-509.25-199.07-1001.88C1628.34,1304.45,1303,767.87,667.09,788.9l-.27-8.14c283.09-9.36,529.21,89.08,731.54,292.58C1560,1235.9,1694.1,1465.49,1797,1755.73,1972.05,2249.48,1996.25,2754.76,1996.48,2759.81Z" fill="#fff"/><path d="M1479.23,1162l-8.1.82C1443.61,893.32,1258.35,544,1256.49,540.49l7.17-3.84C1265.54,540.16,1451.55,890.91,1479.23,1162Z" fill="#fff"/><path d="M1340.7,1030.13c-305.27-105.11-536.49,32-538.79,33.4l-4.22-7c2.33-1.42,236.64-140.54,545.66-34.15Z" fill="#fff"/><path d="M1885.92,2086.57c-174.56-353.71-704.38-328.69-709.52-328l-1.58-8c5-1.14,542.29-24.45,718.4,332.4Z" fill="#fff"/><path d="M1852,1927.5l-8.15.17c-5.16-251.65,217.44-476.7,219.7-478.95l5.74,5.77C2067.07,1456.71,1846.9,1679.37,1852,1927.5Z" fill="#fff"/><path d="M1982.79,2680.91c-44.85-143-279.18-210.55-281.54-211.22l2.21-7.83c9.81,2.76,240.93,69.42,287.1,216.61Z" fill="#fff"/><path d="M1978.68,2561.43l-8.13.46c-6.69-118.29,136.27-284.58,183.24-339.22,6.64-7.73,12.37-14.39,13.16-15.78l7.14,3.91c-1.09,2-4.88,6.42-14.12,17.17C2113.52,2282,1972.17,2446.42,1978.68,2561.43Z" fill="#fff"/></g></g><path d="M1724.94,2182.77c1.8.19,3.6.36,5.4.54,106.71,10.21,225.14,2.53,354.86-33.7l74.37-26.54c2-66.19-8-129.51-91.62-128.27-129.93,1.93-198.66-206-189.41-290.12,11.45-104.13,33.14-347.16-167.77-347.33-167.26-.15-275.22,33.93-347.62-158.52s-217.8-280.91-391.71-213.27c-183,71.19-414.71-129.24-541.57,2.24-221,229.11,156.72,584.41,520.58,607.11s214.62,198.3,256.41,361.3c57,222.54,338.05,82.53,443.28,143.84C1685.78,2120.81,1709.33,2150.65,1724.94,2182.77Z" fill="url(#linear-gradient-2)"/><g opacity="0.3" style="mix-blend-mode:soft-light"><g clip-path="url(#clip-path-2)"><path d="M1924.89,2180.19l8.09-4.5C1604.11,1584.59,990,1156,330.23,1057.16l-1.37,9.15C985.82,1164.73,1597.39,1591.54,1924.89,2180.19Z" fill="#fff"/><path d="M1718,1873.28l8.81-2.81c-80.83-253.25,73-519.85,74.54-522.52l-8-4.68C1791.77,1346,1635.89,1616,1718,1873.28Z" fill="#fff"/><path d="M1861.43,2073.1l6.42-6.66c-194-187-670.74-70.15-675.53-68.94l2.25,9C1199.31,2005.28,1671.09,1889.6,1861.43,2073.1Z" fill="#fff"/><path d="M1229.86,1424.61l7-6.09c-140.69-161-110.5-487.44-110.18-490.72l-9.21-.91C1117.11,930.21,1086.56,1260.65,1229.86,1424.61Z" fill="#fff"/><path d="M853.79,1217l2.22-9c-236.51-58.42-521.33,106.46-524.18,108.14l4.69,8C339.33,1322.42,621,1159.43,853.79,1217Z" fill="#fff"/></g></g><path d="M3385.2,2958.06,375.94,2931.85v77.55c0,21,13.13,38.94,30.9,42.13l850.93,152.71a117.06,117.06,0,0,0,30.53,1.43l2064.2-174.11c18.43-1.55,32.7-19.5,32.7-41.13Z" fill="url(#linear-gradient-3)"/><path d="M2416.48,2832.36,409.06,2974.22c-35.92,2.54-65.12-24.44-65.12-60.26V1478.9A65,65,0,0,1,409.06,1414H2416.48c29.6,0,53.52,26.25,53.52,58.63V2769.94C2470,2802.32,2446.08,2830.26,2416.48,2832.36Z" fill="url(#linear-gradient-4)"/><path d="M2448.49,2832.36,441.07,2974.22c-35.92,2.54-65.13-24.44-65.13-60.26V1478.9A65,65,0,0,1,441.07,1414H2448.49c29.6,0,53.52,26.25,53.52,58.63V2769.94C2502,2802.32,2478.09,2830.26,2448.49,2832.36Z" fill="url(#linear-gradient-5)"/><path d="M2386,2740.89,516.25,2864.12c-29.23,1.93-53-20.21-53-49.45V1558.26a53.24,53.24,0,0,1,53-53.16l1869.7-7.74c24.42-.1,44.16,21.41,44.16,48V2689.76C2430.11,2716.39,2410.37,2739.29,2386,2740.89Z" fill="url(#linear-gradient-6)"/><path d="M2398.4,2825.92,375.94,2975.25l881.83,158.24a116.64,116.64,0,0,0,30.53,1.44l2096.9-176.87-954.63-131.12A153.17,153.17,0,0,0,2398.4,2825.92Z" fill="url(#linear-gradient-7)"/><ellipse cx="1563.51" cy="2165.65" rx="323.87" ry="328.02" fill="#fff"/><path d="M1552.1,2342.4a40,40,0,0,1-34.36-19.7L1395.9,2117.29a40.89,40.89,0,0,1,13.72-55.71,39.8,39.8,0,0,1,55,13.89l84.58,142.59L1661,1995.64a39.86,39.86,0,0,1,53.92-17.77,40.86,40.86,0,0,1,17.54,54.61l-144.64,287.73a40.05,40.05,0,0,1-34.33,22.16Q1552.8,2342.4,1552.1,2342.4Z" fill="url(#linear-gradient-8)"/><polygon points="671.05 2979 2354.81 2852.83 2875.92 2923.83 1206.66 3058.7 671.05 2979" opacity="0.3" fill="url(#linear-gradient-9)" style="mix-blend-mode:multiply"/><path d="M1964.84,2438.77C1810.08,2355.5,1688.4,2461,1571,2356.91c-71.2-63.11-36.24-110.18-123.85-204.49-97-104.46-160.2-69.34-257.71-163.36-123.3-118.87-61.63-211.36-167.84-296.71-128.84-103.54-267.79-7.7-390.43-107-52.9-42.83-81.93-105.09-97.08-171.31h-120a38.1,38.1,0,0,0-38.11,38.07V2939.68c0,21,17.08,36.86,38.11,35.36l2045.89-145.22c10-.71,18.94-6.57,24.66-15.07-149.77-5.46-241.78-55.67-300.59-107.57C2069,2605.65,2088.91,2505.52,1964.84,2438.77Z" fill="#fff" opacity="0.48" style="mix-blend-mode:soft-light"/><path d="M3090.65,2162.87v1120.4c0,16.76-18.33,21.67-39.13,23.69l-719.31,80.44-11,1.07c-22.57,2.19-41.08-10.34-41.08-27.85V2189.84c0-17.5,18.51-32.41,41.08-33.13l14.92-.47,721.85,2.37C3078.78,2157.94,3090.65,2146.11,3090.65,2162.87Z" fill="url(#linear-gradient-10)"/><path d="M3112.84,2161.59v1120.1c0,16.75-17,32.11-37.76,34.13l-731.26,71c-22.55,2.2-41.05-10.33-41.05-27.83V2188.55c0-17.5,18.5-32.41,41.05-33.12l731.26-23.1C3095.86,2131.67,3112.84,2144.84,3112.84,2161.59Z" fill="url(#linear-gradient-11)"/><path d="M3089.39,2224.54V3262.47c0,15.65-15.87,30-35.3,31.83l-687.6,65.89c-21,2-38.19-9.68-38.19-26V2252.48c0-16.3,17.21-30.24,38.19-31l687.6-24.17C3073.52,2196.65,3089.39,2208.89,3089.39,2224.54Z" fill="url(#linear-gradient-12)"/><path d="M2979.84,2680.3c0,140.22-113,261.45-252.8,270.79-140.29,9.38-254.36-97.37-254.36-238.46s114.07-262.38,254.36-270.89C2866.85,2433.26,2979.84,2540.08,2979.84,2680.3Z" fill="#fff"/><path d="M2718.11,2834.23a29.14,29.14,0,0,1-26.92-13.54l-95.59-153.5c-9-14.38-4.14-34.09,10.77-44s34.23-6.29,43.18,8.09l66.29,106.55,87.48-178.15c7.85-16,26.71-23.33,42.11-16.39s21.53,25.5,13.69,41.48l-113,230.41a34.11,34.11,0,0,1-26.87,19Z" fill="url(#linear-gradient-13)"/><g opacity="0.48" style="mix-blend-mode:soft-light"><path d="M2876.45,2806.15c-66.53-133.51-222-101.64-280.42-247.24-34.84-86.86,8.53-128-17.59-234-17.68-71.71-56.27-128.85-100-173.71l-134.62,4.25c-22.55.71-41.05,15.62-41.05,33.12V3359c0,17.5,18.5,30,41.05,27.83l588.48-57.15c-43.58-60.56-62.23-117.51-69-166.92C2842.49,3009.51,2935.54,2924.73,2876.45,2806.15Z" fill="#fff"/></g><path d="M3489,2631.41v773.22c0,11.56-9.89,14.76-21.09,15.94l-386,47.79-5.88.62c-12.06,1.26-21.95-7.54-21.95-19.57V2645.08a22.79,22.79,0,0,1,21.95-22.52l8-.23,387.4,5.94C3482.55,2627.94,3489,2619.84,3489,2631.41Z" fill="url(#linear-gradient-14)"/><path d="M3500.91,2630.66v773.11c0,11.56-9.15,22-20.36,23.15l-392.5,41.18c-12.05,1.27-21.94-7.54-21.94-19.56V2644.33a22.79,22.79,0,0,1,21.94-22.52l392.5-11.57C3491.76,2609.91,3500.91,2619.1,3500.91,2630.66Z" fill="url(#linear-gradient-15)"/><path d="M3488.27,2674v716.3c0,10.8-8.55,20.51-19,21.6L3100.17,3450a18.1,18.1,0,0,1-20.41-18.26V2688.42a21.31,21.31,0,0,1,20.41-21.06L3469.24,2655C3479.72,2654.62,3488.27,2663.16,3488.27,2674Z" fill="url(#linear-gradient-16)"/><path d="M3444.73,2992.28c0,83.49-66.93,155.78-149.65,161.46-82.88,5.69-150.19-57.62-150.19-141.42s67.31-156.1,150.19-161.49C3377.8,2845.45,3444.73,2908.79,3444.73,2992.28Z" fill="#fff"/><path d="M3289.8,3084.25a17.17,17.17,0,0,1-15.91-8l-56.47-91.11c-5.28-8.54-2.44-20.25,6.37-26.17s20.21-3.81,25.5,4.73l39.17,63.24,51.74-106.12c4.64-9.53,15.8-13.93,24.92-9.83s12.75,15.13,8.1,24.65l-66.88,137.26a20.22,20.22,0,0,1-15.88,11.31Z" fill="url(#linear-gradient-17)"/><g opacity="0.48" style="mix-blend-mode:soft-light"><path d="M3373.31,3093.69c-35.82-90-132.36-68.77-162.44-159.78-24.55-74.28,30.06-117.81,8.68-203.82-12-48.26-41.51-84.11-71.68-110l-59.82,1.76a22.79,22.79,0,0,0-21.94,22.52v804.21c0,12,9.89,20.83,21.94,19.56L3389,3436.53c-24.15-38.07-33.86-72.86-37.28-101.75C3339.21,3229.65,3406.12,3176.19,3373.31,3093.69Z" fill="#fff"/></g><path d="M1022.7,2310.64c18.15-11.77,1.61-46,.64-119.54-1.2-90.1,22.73-106.9,3.51-142.25-23.51-43.23-82.67-61.12-121.87-62-8.65-.19-10.67-4.91-83.1,13.85-130.5,33.8-163.17-2.43-221.61,33.76-56.46,35-31.73,73.26-86.56,114.26-88.87,66.47-182.33-5.39-245.84,50.21-60.08,52.59-61.46,186.57,1.73,259.69,71.64,82.89,200.81,58,287.39,41.55,18.22-3.46,110.22-22.78,206-93.49a548.42,548.42,0,0,0,112.53-111.66c5.44-6.12,13.92-13.53,25.11-14.72,13.43-1.43,24.23,6.79,29.43,10.39C957.39,2309.64,1004.87,2322.2,1022.7,2310.64Z" fill="url(#linear-gradient-18)"/><path d="M949.77,2261.25c23.34-21.26,106.62,19.72,161.82,74.11,64.84,63.9,59.86,115.71,116.44,195.09,28.14,39.46,76.37,92.59,161.82,139.13L1371.7,2715c-41.31,2.48-122.43,1-198.11-48.39C1121,2632.23,1094,2586.74,1042,2497.17,989.88,2407.28,920.6,2287.83,949.77,2261.25Z" fill="url(#linear-gradient-19)"/><path d="M1475.78,3476.59l-65-39.06h-29.34s-10,37.2-8.86,39.06c13.07,21.42,73.94,37.72,111.92,39.07,6.31.22,15.11.25,17.38-4.32C1505.72,3503.6,1488.52,3487.37,1475.78,3476.59Z" fill="url(#linear-gradient-20)"/><path d="M1409.62,3394.9c-4.18,24.18,1.11,36.79,6.8,43.85,4,5,7.58,6.39,31.38,27,7.87,6.8,11.88,10.45,11,12.35-1,2.19-8,1-23-2.6-32.69-7.87-49.12-12-53.13-19.82-3.63-7.13-.42-10.34-.63-29.75a101.23,101.23,0,0,0-4.78-29.5Z" fill="url(#linear-gradient-21)"/><path d="M1456.62,3203.23s29.37,35.05,24.59,73.47S1425,3259,1417.82,3240s-15.55-46-15.55-46S1438.34,3171.49,1456.62,3203.23Z" fill="url(#linear-gradient-22)"/><path d="M1445.41,3148.39s-8,40.83,7.23,62.38c7.57,10.74,17.78,19.84,14.78,28.58-2,5.85-9.65,10.06-16.12,9.4-12.4-1.28-19.26-20.27-24.11-33.67-7.15-19.79-11.14-62.14-11.14-62.14Z" fill="url(#linear-gradient-23)"/><path d="M1422,3182.81l27.1-9.87c14.09-32.19,31.29-85.06,25.55-149.32-14.78-165.25-167.62-252.82-184.6-262.19-41.64,20.89-83.82,50.37-85.35,87.52-1.92,46.65,61.63,71.31,121.36,139.51C1361.92,3029.41,1400.23,3090.41,1422,3182.81Z" fill="url(#linear-gradient-24)"/><path d="M1412.26,3413.8c29.85-116.59,22.23-211.73,13.62-266.54-13-82.84-39.49-251.35-152-314.19-24.57-13.72-59.69-26-102.5-64.15a363.1,363.1,0,0,1-72.17-89C948.76,2635.82,810,2653.7,748.74,2734.4c-7.08,9.32-24.79,29.55-28.22,59.37-7.73,67.28,58.38,148.29,132.57,165.21,94.28,21.49,149-75.32,232.52-43.11,23.36,9,43.17,31.34,82.79,76a631.19,631.19,0,0,1,89.46,130.2c31.92,62.45,56.13,108.56,59.66,168.32.82,13.92,1.31,42,17.62,72.37,12.51,23.28,29.48,38.81,42.1,48.4Z" fill="url(#linear-gradient-25)"/><path d="M720.52,2793.77c3.43-29.82,21.14-50.05,28.22-59.37,61.24-80.7,200-98.58,350.48-54.45a363.1,363.1,0,0,0,72.17,89c42.81,38.15,77.93,50.43,102.5,64.15,68.7,38.37,105.28,116.14,126.35,189.75-31.25-48.46-58-61.35-78.71-61.58-29.64-.33-42.88,25-78.27,21.55-37.82-3.69-46.46-35-77.12-38.56-9.18-1.08-20.47.34-34,7.56-18.1-18.95-31.59-30.17-46.5-35.92-83.54-32.21-138.24,64.6-232.52,43.11C778.9,2942.06,712.79,2861.05,720.52,2793.77Z" opacity="0.3" fill="url(#linear-gradient-26)" style="mix-blend-mode:multiply"/><path d="M1334.31,2885.22a495.64,495.64,0,0,0-74.89,1.7c-150.13,14.83-191.51,89.09-315.59,107.22-29.35,4.28-160,23.37-216.64-52.18-40.64-54.24-34.49-147.7,10-184.46,18.81-15.55,37.43-15.12,157.91-14,45.36.41,90.74.56,136.1,1.14,192,2.44,228.78-10.86,263.72,20.91C1311.18,2780.34,1335,2812.16,1334.31,2885.22Z" fill="url(#linear-gradient-27)"/><path d="M928.88,2269.05s-224.1-65.36-247.35,98.7c-22.28,157.25,91.87,229.41,39.93,388.69-6,18.46,426.59-66.11,426.59-66.11-57.74-72-71.16-131.48-72.54-172.81-1.52-45.3,11.54-65.9,0-119.45,0,0-12.89-59.76-59.37-111.08C1009.47,2279.63,1001.52,2272,928.88,2269.05Z" fill="url(#linear-gradient-28)"/><path d="M880.21,2170.72c2,9.6,12.5,61.06-8.56,74.3-4.56,2.88-13.33,4.52-30.87,7.81-11.49,2.15-21.12,3.47-27.92,4.28,1,8.63,3.89,22.68,13.85,35.46,27.92,35.82,83.9,26.55,91.88,25.09,28.16-5.12,55.87-13.82,62.56-19.14,10.19-8.1,18.2-14.17,22.94-20.34-10.9-5.27-32.9-19.16-47.66-23.7a272.72,272.72,0,0,0-30.81-7.56L921,2217.1Z" fill="url(#linear-gradient-29)"/><path d="M879.22,2196.37s3.81,37.72,40.47,44.37c32.83,6,57.54-73.38,40.74-93.9-5.6-6.84-19.44-13.35-31.43-13-8.44.24-36.93,11.1-40.9,39.6-5.68-6-12.75-7.69-16.23-5.19-4.43,3.18-2.06,12.41-1.52,14.5A26.53,26.53,0,0,0,879.22,2196.37Z" fill="url(#linear-gradient-30)"/><path d="M1193.73,2708.75l-343,16.69a14.42,14.42,0,0,0-11.53,6.77l-9.49,15.24a11.14,11.14,0,0,0,9.88,17l363.31-13.84Z" fill="url(#linear-gradient-31)"/><path d="M1550.47,2517.75l-354.35,6.87a29.7,29.7,0,0,0-25.26,15l-122.71,215.89,374.24-14.91a30.46,30.46,0,0,0,24.92-14.79L1561,2535.9A12,12,0,0,0,1550.47,2517.75Z" fill="url(#linear-gradient-32)"/><path d="M1170.85,2539.65a29.73,29.73,0,0,1,25.27-15l7.77-.15c1.16,11.43,4.67,21.9,11.66,30.35,21.85,26.37,58.16,10.1,85.21,38,29.73,30.66,2.27,67.16,28.84,95.7,28,30,73.2,5.58,125.2,24.8l-7.49,12.51a30.46,30.46,0,0,1-24.92,14.79l-374.24,14.91Z" opacity="0.3" fill="url(#linear-gradient-33)" style="mix-blend-mode:multiply"/><path d="M878.69,2697.29l13.39-35.37c-49.34-13.53-117.58-33.51-187.57-58.52-11-3.92-24-8.77-28.25-20.31-12-32.36,64.11-65.89,93.69-136.54,27.36-65.34,12.3-156-19.44-166.74-66.07-22.29-300.34,269.32-216.67,392.25C581.14,2741.55,727,2752.62,878.69,2697.29Z" fill="url(#linear-gradient-34)"/><path d="M892.08,2661.92c31-16.45,68.06.41,70.44,1.54a92.67,92.67,0,0,1,26.72,19.16c1.14,1.55,14.57,20.16,9.68,26.13-3.93,4.78-19.12.82-37.38-10.54a141.94,141.94,0,0,0-32.71-.8c-25.07,2.31-36.55,10.23-45.65,3.4-6.67-5-8.94-15.59-6.54-23.46C879.22,2668.9,886.84,2664.71,892.08,2661.92Z" fill="url(#linear-gradient-35)"/><path d="M582.6,3424.89c24.42-120.69,13.91-217.68,2.81-276.25-13.45-71-40.81-215.5-155.64-296-9-6.34-98.88-68.13-139.23-37.44-20.81,15.82-25.56,54-16.46,84.21,23.49,77.88,129.4,69.24,164.59,157.88,11.72,29.52,13.89,65.54,5.72,68.94-10.06,4.18-38.76-39.86-41.49-44.06-25.59-39.27-25.82-61.5-45.33-67.53-12-3.7-27.76-.23-34.83,9.23-16.08,21.54,15.69,70.62,24.57,84.34,23.23,35.89,42.63,44,47.34,74.6,2,13.16,1.67,32.61-6.13,35.64-10.56,4.1-30.7-23.39-43.62-41-34.75-47.41-38.45-75-55.73-76.95-16.11-1.84-34.27,19.7-38.94,32.82C237.5,3169.11,288.67,3245.36,582.6,3424.89Z" fill="url(#linear-gradient-36)"/><path d="M578.93,3404.19c3.64-112.15-14.51-201.06-31-259.4-21.13-75-60.89-216-172.44-277.08-7.92-4.34-66.24-36.25-82.53-19.16-10.86,11.39-1.24,42.67,14.74,63.37,27.26,35.34,58.65,21.32,103.17,56,39.94,31.13,54,73,57.48,84,13,40.69,6.25,75.58,4.42,88.43C465.83,3189.19,480.12,3269.16,578.93,3404.19Z" fill="#fff" opacity="0.28" style="mix-blend-mode:soft-light"/><path d="M539.13,3376.19c-62.55-56-77-101.92-78.11-134.12-.87-25.09,5.92-54.87-13.27-82.54-12.27-17.7-21.52-14.84-42.74-33.9-44.31-39.8-49.82-93.45-58.95-91.38-5.09,1.16-7.72,18.76-4.42,35.38,6.81,34.29,33.63,37.89,60.42,79.58,18.31,28.49,24.66,56.18,28,70.75,8.16,35.55,2.61,48,7.37,67.8C443.59,3313.38,465.88,3346.44,539.13,3376.19Z" fill="#fff" opacity="0.28" style="mix-blend-mode:soft-light"/><path d="M545,3444.39c-108.42,6.22-140.65,12.71-191.75-4.7-48-16.36-97.26-48.58-92.93-63.37,3.1-10.61,33.24-10.47,51.25-10.38,48.31.22,88.15,15,116.11,29.33l-72.34-49.09c-16.83-6-45.32-18.81-70.56-45.82-15.8-16.9-52.1-62.7-38.45-84.7,14.25-23,82-18.34,121,14.25,18.73,15.64,18.75,27.62,43.86,54.92a263.69,263.69,0,0,0,62.91,50.08,359.71,359.71,0,0,1-53-90.47c-24.91-62-43.71-160.09-12-177.92,21-11.83,62.69,12.54,83.54,41.42,16.9,23.42,15.24,43.07,26.87,118.32,5,32.72,10,59.06,13.23,75.41,32.25-70.74,41.6-130.24,43.49-174,2.43-56.2-6.87-100.24,14.62-112,19.16-10.44,53.37,9.93,70.73,29,70.23,77.36-22.44,258.92-32.23,277.66A516.09,516.09,0,0,0,725,3228.26c36.78-47.19,52.31-82.32,71-79.18s30.85,42.72,29.46,73.36c-3.89,85.42-115.45,135.58-127.36,140.75a127.15,127.15,0,0,0,44.06-.48c41.59-7.94,54.56-33.15,96.76-41.71,16.14-3.27,49.14-6.66,53.21,3.33,7.3,17.93-76,85.3-177.19,111C677.91,3444.72,686.78,3436.27,545,3444.39Z" fill="url(#linear-gradient-37)"/><path d="M473.46,3382.6c-49.36-21.95-42.66-51.79-96.66-88.74-34.58-23.67-42.62-15-79.68-37.67a251.76,251.76,0,0,1-50.57-40.82c-.06.1-.14.19-.2.29-13.65,22,22.65,67.8,38.45,84.7,25.24,27,53.73,39.79,70.56,45.82l72.34,49.09c-28-14.31-67.8-29.11-116.11-29.33-15.7-.08-40.61-.19-48.8,6.81A115.53,115.53,0,0,0,301,3388.24c24.22,5,39.42-.58,60.37,12.05,16.81,10.13,15.41,18.74,30.21,24.22,13.93,5.17,21-.28,55.41-5.93,33.43-5.48,50.42-8.06,63.93.43,10.21,6.41,15.64,17,18.63,26.3l10.64-.64a82.28,82.28,0,0,0-17-33.87C508.23,3393.46,491.93,3390.81,473.46,3382.6Z" fill="#fff" opacity="0.28" style="mix-blend-mode:soft-light"/><path d="M614.13,3420.53c7.8-1.87,11.52,3.71,22.36,5.11,20.13,2.62,27.67-14,51.33-21.88,28-9.34,35.11,8,63-.61,22.08-6.84,19.23-18.23,48.08-34.85,30.7-17.69,43.7-10.43,66.26-25a87.47,87.47,0,0,0,23.41-22.55c-9.92-5.37-35.87-2.51-49.62.28-42.2,8.56-55.17,33.77-96.76,41.71a127.15,127.15,0,0,1-44.06.48c11.91-5.17,123.47-55.33,127.36-140.75,1.29-28.42-9.16-64.52-25.53-72.1a411.44,411.44,0,0,1,1.92,49.86c-.7,30.87-1.25,46.57-11,59.44-16.94,22.34-37.59,10.7-65.75,33.92-25.63,21.14-16.7,37.54-43.44,58.71-23.08,18.27-36.75,11.62-58.47,26.43-13.62,9.29-30.16,26.89-40.1,63.72,4.52-.2,8.86-.39,13-.55C600,3431.42,605.72,3422.54,614.13,3420.53Z" fill="#fff" opacity="0.28" style="mix-blend-mode:soft-light"/><path d="M589.77,3304.12c13.51-36.8,37-33,46.75-65.42,9.73-32.22-11.55-42.23-6.13-88.88,4.07-35,17.26-40.09,18.14-64,.65-17.61-5.56-41.6-34.26-71.34-8.71-2.29-16.93-2.3-23.42,1.24-21.49,11.71-12.19,55.75-14.62,112-1.89,43.74-11.24,103.24-43.49,174-3.22-16.35-8.18-42.69-13.23-75.41-11.63-75.25-10-94.9-26.87-118.32-20.85-28.88-62.52-53.25-83.54-41.42a21.25,21.25,0,0,0-3.38,2.38A118.26,118.26,0,0,1,434,3095.66c27.72,36.94,11.95,63.41,37.08,136.27,24.17,70.07,48.69,74.4,68.14,135A285,285,0,0,1,552.5,3444c7.1-.39,13.79-.74,20.13-1a298.71,298.71,0,0,0,12.17-63.3C588,3339.76,580.65,3329,589.77,3304.12Z" fill="#fff" opacity="0.28" style="mix-blend-mode:soft-light"/><path d="M2413.68,1058.75l41.05-.22s98.33-123.39,164.77-130.21l6.16-347.63c-254.49.84-479.09,143.07-581.38,353.28Z" fill="url(#linear-gradient-38)"/><path d="M2904.62,1212.81c-20.86,114.22-125.76,204-254.27,208-31.64,1-68.53-17.83-68.53-17.83s-33.84,1.84-39.63-.4l-200.6,308.08c93.24,41.75,198.57,62.2,308.76,55.93,320.41-18.26,572.33-257.52,600.31-545.54Z" fill="url(#linear-gradient-39)"/><path d="M2278.8,1678.24l40.13,1.38,162.31-310.37c-60.55-44.47-99.47-113.67-99.47-192.17a233.94,233.94,0,0,1,6.61-55.25l-330.6-123.76-40.2.46a562.41,562.41,0,0,0-30.67,183.36C1986.91,1393.25,2103.82,1575.23,2278.8,1678.24Z" fill="url(#linear-gradient-40)"/><path d="M2689.64,929.83c117,17.28,207,107.24,217.71,218.41l565.85,16.27v-.72c0-.42,85.3-13.6,85.3-13.66,0-3.84-773-809.79-773-809.79l-85.74,14Z" fill="url(#linear-gradient-41)"/><path d="M2454.17,1058.75c41-71.11,117.23-121.34,205.82-130.43l6.16-347.63c-254.49.84-479.09,143.07-581.38,353.28Z" fill="url(#linear-gradient-42)"/><path d="M2945.11,1212.81c-20.86,114.22-125.76,204-254.28,208a275.75,275.75,0,0,1-108.15-18.23l-200.6,308.08c93.24,41.75,198.57,62.2,308.75,55.93,320.42-18.26,572.34-257.52,600.32-545.54Z" fill="url(#linear-gradient-43)"/><path d="M2319.29,1678.24l202.44-309c-60.55-44.47-99.47-113.67-99.47-192.17a233.94,233.94,0,0,1,6.61-55.25l-370.81-123.3a562.67,562.67,0,0,0-30.66,183.36C2027.4,1393.25,2144.31,1575.23,2319.29,1678.24Z" fill="url(#linear-gradient-44)"/><path d="M2775,915.18c117,17.27,207,107.23,217.71,218.4l565.85,16.27c0-.24,0-.48,0-.71,0-411.75-330.75-764.12-773.43-809.48Z" fill="url(#linear-gradient-45)"/><g opacity="0.3" style="mix-blend-mode:multiply"><path d="M2613.47,1412.39a270.57,270.57,0,0,1-30.79-9.82l-200.6,308.08c93.24,41.75,198.57,62.2,308.75,55.93a668.16,668.16,0,0,0,247.86-62.73c-75.82-11.39-143.52-39.91-197.57-87.44C2679.54,1562.26,2639.61,1486.94,2613.47,1412.39Z" fill="url(#linear-gradient-46)"/></g><g opacity="0.3" style="mix-blend-mode:multiply"><path d="M2546.13,718.67c-23.82-43.58-57.88-76.6-96.1-101.84-160.83,55-293.3,169.27-365.26,317.14l369.4,124.78c25.64-44.5,65.1-80.81,112.74-104C2576.54,862.26,2587.46,794.27,2546.13,718.67Z" fill="url(#linear-gradient-47)"/></g><ellipse cx="1918.53" cy="593.51" rx="237.57" ry="189.12" fill="url(#linear-gradient-48)"/><path d="M1918.53,469.78a85,85,0,0,0-85,85c0,30.41,35.68,101.16,60.8,147.19a27.53,27.53,0,0,0,48.34,0c25.12-46,60.81-116.78,60.81-147.19A85,85,0,0,0,1918.53,469.78Zm0,130.6a45.63,45.63,0,1,1,45.63-45.62A45.63,45.63,0,0,1,1918.53,600.38Z" fill="#fff"/><g opacity="0.3" style="mix-blend-mode:multiply"><path d="M1976.21,734.46c-28.66-55.85.32-108.06-38.43-144.15-39.37-36.67-90.52-2.58-145.58-32.44-21.28-11.54-44.94-33.62-62.53-79.09C1699.11,510.6,1681,550.37,1681,593.51c0,104.45,106.37,189.12,237.57,189.12a291.62,291.62,0,0,0,85.28-12.55A125.35,125.35,0,0,1,1976.21,734.46Z" fill="url(#linear-gradient-49)"/></g><ellipse cx="2267.67" cy="335.12" rx="162.34" ry="129.23" fill="url(#linear-gradient-50)"/><path d="M2216.92,396.58V273.65c0-7.89,6.62-13.08,12.35-9.68l103.56,61.46c6.55,3.89,6.55,15.48,0,19.37l-103.56,61.46C2223.54,409.66,2216.92,404.47,2216.92,396.58Z" fill="#fff"/><g opacity="0.3" style="mix-blend-mode:multiply"><path d="M2307.09,431.43c-19.59-38.16.21-73.84-26.27-98.5-26.9-25.06-61.85-1.77-99.47-22.17-14.55-7.88-30.72-23-42.74-54-20.87,21.74-33.28,48.92-33.28,78.4,0,71.37,72.69,129.22,162.34,129.22a199,199,0,0,0,58.27-8.57A85.73,85.73,0,0,1,2307.09,431.43Z" fill="url(#linear-gradient-51)"/></g><path d="M3263.65,1947.07l1.65-.12,3-.24,1.65-.16,3-.3,1.57-.17,3.05-.36,1.42-.19,3.21-.44,1.22-.19c1.16-.17,2.31-.35,3.47-.54l.91-.16c1.29-.21,2.58-.44,3.86-.68l.47-.09a234.2,234.2,0,0,0,29.67-7.6l0,0c69.15-22.74,117.34-75.55,117.34-135.56,0-78-81.53-141.93-184.71-142.69-100.31-.74-184.71,58.12-193.73,133.94l-.15,1.24c-.07.63-.13,1.25-.18,1.88s-.11,1.17-.15,1.76-.08,1.07-.11,1.6c-.05.74-.08,1.47-.12,2.21,0,.42,0,.84-.05,1.26,0,1.17-.06,2.34-.06,3.52,0,39.83,20.73,75.32,54.18,101q3.24,2.47,6.63,4.83c2.26,1.57,4.58,3.1,6.94,4.58,1.18.74,2.37,1.48,3.57,2.19q3.61,2.16,7.37,4.19c2.5,1.34,5.05,2.65,7.64,3.9q3.29,1.59,6.68,3.07a218.89,218.89,0,0,0,40.44,13.21c2.73.61,5.5,1.19,8.28,1.71a245.81,245.81,0,0,0,52.82,3.94c1.55,0,3.11-.12,4.65-.2l1.45-.08C3261.52,1947.21,3262.59,1947.15,3263.65,1947.07Z" fill="url(#linear-gradient-52)"/><path d="M3448.78,1800.25c0,78.06-80.08,144-181.43,147.3-104.29,3.43-191.08-60.37-191.08-142.58s86.79-148.2,191.08-147.41C3368.7,1658.32,3448.78,1722.2,3448.78,1800.25Z" fill="url(#linear-gradient-53)"/><path d="M3205.67,1902.72l8.19-54.94-25.58.49V1820l30.61-.45,5-34.27-26.78.27V1757.1l31.17-.2,7.83-53.07,27.73,0-7.77,52.87,28.19-.18,8-52.66,27.3,0-8,52.46,24.41-.15v27.94l-28.7.3-4.91,33.87,25.39-.38v27.68l-30,.56-7.7,54.29-27.84.73,7.76-54.49-28.31.53L3234,1902Zm69.35-84,4.95-34-28.23.29-5,34.13Z" fill="#fff"/><g opacity="0.3" style="mix-blend-mode:multiply"><path d="M3312.26,1909.37c-22.24-42.07.24-82.33-29.86-109.46-30.85-27.79-71.33-1.11-115.41-23.79-17.19-8.84-36.39-25.95-50.73-61.47-25,25-40,56.37-40,90.32,0,82.21,86.79,146,191.08,142.58a233.28,233.28,0,0,0,66.2-11.72A91.38,91.38,0,0,1,3312.26,1909.37Z" fill="url(#linear-gradient-54)"/></g></g></g></g></svg>